<?xml version="1.0" standalone="no"?>
<!DOCTYPE svg PUBLIC "-//W3C//DTD SVG 20010904//EN"
 "http://www.w3.org/TR/2001/REC-SVG-20010904/DTD/svg10.dtd">
<svg version="1.0" xmlns="http://www.w3.org/2000/svg"
 width="451.000000pt" height="553.000000pt" viewBox="0 0 451.000000 553.000000"
 preserveAspectRatio="xMidYMid meet">

<g transform="translate(0.000000,553.000000) scale(0.100000,-0.100000)"
fill="#000000" stroke="none">
<path d="M1950 5085 c-332 -31 -498 -61 -815 -147 -138 -38 -363 -114 -381
-129 -11 -9 -14 -43 -14 -139 l0 -127 -63 -40 c-34 -22 -115 -73 -180 -113
-65 -40 -121 -79 -124 -87 -4 -10 29 -48 97 -111 l102 -96 -6 -94 c-4 -52 -13
-126 -21 -166 -7 -39 -16 -101 -20 -138 -8 -85 -2 -86 98 -21 40 25 117 75
172 111 55 35 151 98 213 138 l112 74 1 45 c4 123 -5 112 131 159 215 74 419
121 663 151 133 16 463 20 565 6 36 -5 90 -12 120 -15 101 -12 417 -77 441
-91 4 -3 47 -17 95 -31 48 -13 109 -34 136 -46 l48 -20 0 -79 0 -79 88 -57
c88 -56 136 -87 317 -205 136 -88 182 -114 190 -106 8 8 -13 240 -25 283 -5
17 -12 62 -15 100 l-6 70 103 103 c83 83 101 106 92 119 -10 16 -119 87 -271
177 l-83 49 0 138 0 138 -32 14 c-147 63 -438 151 -604 182 -39 7 -91 19 -115
25 -47 13 -209 36 -354 50 -166 16 -502 19 -655 5z m342 -37 c-2 -7 -10 -27
-19 -45 -8 -18 -12 -37 -8 -43 3 -5 -1 -13 -9 -16 -14 -5 -16 -37 -16 -235 l0
-229 70 0 70 0 -2 228 -3 227 -50 6 c-27 3 -43 7 -35 7 9 1 38 25 65 52 l49
50 72 0 c79 0 329 -26 384 -39 19 -5 60 -12 90 -16 126 -15 464 -109 688 -191
l42 -16 0 -373 0 -374 -82 38 c-144 67 -171 78 -273 116 -112 42 -225 80 -300
100 -27 7 -75 20 -105 28 -30 8 -77 18 -105 22 -27 3 -59 10 -70 15 -11 5 -65
14 -120 20 -55 5 -147 15 -205 21 -187 20 -531 -4 -790 -54 -219 -43 -513
-144 -730 -250 -58 -29 -108 -53 -112 -55 -5 -2 -8 165 -8 371 l0 376 188 60
c103 33 207 65 232 71 196 47 266 62 340 74 47 8 96 17 110 20 46 11 301 36
378 37 43 1 91 5 107 8 51 12 161 4 157 -11z m-1540 -805 l3 -248 145 -5 145
-5 -70 -43 c-39 -24 -146 -92 -240 -152 -93 -61 -174 -110 -179 -110 -4 0 -5
8 -1 18 8 18 17 77 35 226 6 49 14 106 19 126 l8 38 -98 98 c-55 54 -99 103
-99 109 1 12 299 195 317 195 10 0 13 -59 15 -247z m2999 229 c15 -9 48 -30
75 -46 27 -16 65 -39 84 -51 19 -13 55 -35 79 -50 l44 -27 -98 -98 -98 -98 7
-89 c3 -48 16 -141 27 -207 11 -65 18 -120 16 -123 -3 -2 -31 13 -63 33 -84
53 -246 158 -337 218 l-79 51 129 2 c70 2 138 5 151 8 l22 5 0 245 c0 135 3
245 8 244 4 0 19 -8 33 -17z m-2664 -438 c-2 -3 -53 -3 -113 -2 l-109 3 45 21
c25 12 74 35 110 52 l65 30 3 -50 c2 -28 1 -52 -1 -54z m2385 51 c56 -25 104
-48 107 -50 2 -3 -46 -5 -107 -5 l-112 0 0 50 c0 28 2 50 5 50 2 0 51 -20 107
-45z"/>
<path d="M1897 4917 c-16 -11 -17 -34 -15 -232 l3 -220 50 3 c28 2 100 7 160
10 l110 7 3 59 3 59 -100 -5 -101 -5 0 169 0 168 -48 0 c-27 0 -56 -6 -65 -13z"/>
<path d="M2500 4904 c-52 -32 -74 -82 -78 -172 -6 -128 30 -209 116 -259 39
-23 58 -27 123 -28 69 0 80 3 104 25 31 29 55 71 55 97 0 12 -18 26 -55 42
-31 13 -57 22 -58 20 -1 -2 -9 -17 -17 -34 -21 -41 -70 -46 -105 -11 -23 23
-25 33 -25 105 0 70 3 83 22 101 32 30 57 25 98 -20 37 -40 39 -41 89 -34 49
6 50 8 44 33 -23 93 -108 151 -220 151 -44 0 -77 -6 -93 -16z"/>
<path d="M1559 4865 c-65 -34 -112 -92 -132 -165 -21 -75 -21 -116 -1 -177 31
-94 100 -134 195 -114 128 28 193 95 219 227 18 90 0 166 -50 216 -37 37 -39
38 -111 38 -58 -1 -84 -6 -120 -25z m120 -102 c27 -22 38 -101 22 -160 -8 -30
-21 -47 -45 -62 -43 -27 -52 -26 -81 4 -48 47 -26 187 34 220 34 19 45 18 70
-2z"/>
<path d="M2857 4864 c-4 -4 -7 -105 -7 -224 0 -166 3 -220 13 -228 7 -6 37
-12 67 -14 l55 -3 0 220 0 220 -25 12 c-34 16 -94 26 -103 17z"/>
<path d="M1185 4759 c-141 -50 -125 -14 -125 -275 l0 -226 29 5 c17 4 45 13
63 20 l33 14 -1 81 -1 81 31 11 c120 45 153 75 181 164 19 59 12 97 -23 139
-22 25 -91 20 -187 -14z m85 -117 c0 -31 -21 -55 -57 -66 -28 -9 -37 7 -29 49
7 34 18 42 64 44 18 1 22 -4 22 -27z"/>
<path d="M3140 4764 c-6 -14 -10 -28 -10 -31 0 -3 -6 -19 -14 -36 -25 -60 -58
-147 -71 -190 -7 -23 -20 -58 -29 -79 -19 -43 -14 -49 63 -71 l53 -15 12 30
c9 25 15 29 38 24 15 -3 44 -13 65 -23 30 -14 40 -26 47 -55 6 -25 17 -40 30
-44 12 -3 36 -12 54 -21 40 -17 67 -11 57 15 -6 15 -63 210 -117 397 -11 39
-24 74 -28 79 -10 10 -108 46 -127 46 -8 0 -18 -12 -23 -26z m100 -215 c7 -27
10 -52 7 -55 -2 -3 -17 -2 -32 2 -25 6 -27 9 -21 47 12 75 29 77 46 6z"/>
<path d="M2224 4308 c-8 -12 -35 -83 -51 -130 -3 -12 0 -18 10 -18 10 0 17 15
22 48 6 41 18 61 36 62 3 0 11 -16 19 -35 8 -19 17 -35 22 -35 11 0 10 24 -1
36 -5 5 -13 24 -18 43 -10 38 -26 50 -39 29z"/>
<path d="M2276 4164 c-4 -15 -5 -29 -1 -32 3 -3 5 3 6 14 0 13 6 8 16 -16 19
-43 29 -24 13 25 -14 42 -25 45 -34 9z"/>
<path d="M2147 4112 c-13 -31 -23 -41 -49 -47 l-33 -7 30 -9 c37 -11 62 10 71
58 9 48 -1 51 -19 5z"/>
<path d="M2218 4090 c-7 -16 -16 -30 -20 -30 -4 0 -5 -7 -1 -15 10 -28 -26
-55 -73 -55 -23 0 -49 -3 -58 -6 -13 -5 -13 -8 2 -23 9 -10 31 -27 48 -39 29
-20 31 -24 24 -67 -4 -24 -5 -47 -2 -50 10 -10 53 -5 82 10 25 13 29 13 34 0
6 -16 81 -22 89 -7 2 4 -1 25 -7 47 l-12 40 53 41 c57 46 55 54 -17 54 -47 0
-70 8 -70 25 0 12 -49 105 -55 105 -2 0 -9 -13 -17 -30z m66 -144 c15 -5 17
-9 8 -18 -7 -7 -12 -22 -12 -35 0 -20 -4 -22 -24 -17 -13 3 -33 1 -45 -5 -19
-11 -20 -9 -15 18 4 16 1 31 -5 35 -16 10 -14 26 4 26 8 0 20 10 26 22 11 21
11 21 28 1 9 -11 25 -23 35 -27z"/>
<path d="M2320 4076 c0 -20 15 -28 55 -30 26 -1 31 2 23 11 -6 7 -21 13 -34
13 -13 0 -24 5 -24 10 0 6 -4 10 -10 10 -5 0 -10 -6 -10 -14z"/>
<path d="M1860 4041 c0 -4 28 -30 63 -56 34 -27 69 -55 77 -62 8 -8 28 -25 45
-38 26 -22 28 -27 17 -45 -14 -23 -15 -30 -4 -30 11 0 31 50 26 64 -3 7 -18
20 -34 29 -16 10 -46 34 -67 53 -21 20 -50 42 -65 50 -30 16 -36 29 -15 37 6
3 0 6 -15 6 -16 1 -28 -3 -28 -8z"/>
<path d="M2498 4043 c7 -3 16 -2 19 1 4 3 -2 6 -13 5 -11 0 -14 -3 -6 -6z"/>
<path d="M2569 4041 c12 -8 12 -12 2 -25 -8 -9 -18 -16 -24 -16 -5 0 -22 -11
-36 -25 -46 -44 -98 -85 -109 -85 -16 0 -20 -22 -8 -52 14 -37 30 -36 23 2 -6
27 -1 34 66 87 40 31 74 61 75 65 2 5 17 15 33 23 38 20 37 35 -3 35 -24 0
-29 -3 -19 -9z"/>
<path d="M2945 3882 c-11 -11 -3 -49 18 -91 14 -29 40 -56 72 -79 62 -42 71
-61 15 -32 -27 14 -55 20 -83 18 -48 -3 -50 -15 -16 -81 23 -45 23 -47 5 -47
-7 0 -19 -6 -25 -14 -9 -10 -4 -28 24 -80 l35 -66 -25 0 c-16 0 -25 -6 -25
-16 0 -15 44 -101 61 -118 16 -18 9 -26 -21 -26 -16 0 -30 -4 -30 -9 0 -7 28
-75 48 -113 2 -5 -7 -8 -21 -8 -13 0 -26 -2 -29 -6 -8 -8 37 -96 69 -134 l28
-33 -33 6 c-23 5 -34 3 -38 -7 -9 -24 49 -129 83 -151 21 -13 32 -28 33 -44 0
-23 -2 -24 -49 -18 -31 4 -55 1 -65 -6 -14 -11 -14 -15 0 -44 9 -18 27 -44 40
-58 13 -14 24 -28 24 -29 0 -2 -24 -3 -52 -2 l-53 1 1 -31 c1 -17 14 -50 29
-74 29 -46 30 -45 -29 -76 -16 -9 -39 -14 -52 -11 -13 2 -24 1 -24 -3 0 -21
46 -61 83 -72 l42 -12 -35 -4 c-19 -2 -47 -13 -62 -23 l-28 -20 0 35 c0 43
-15 46 -79 16 -73 -36 -101 -74 -101 -142 -1 -34 -3 -39 -11 -26 -16 28 -67
24 -79 -7 -5 -14 -16 -25 -23 -25 -11 0 -13 14 -9 69 3 46 1 71 -7 75 -6 4
-42 -7 -78 -26 -70 -35 -123 -92 -123 -133 0 -26 -20 -37 -41 -24 -19 12 -116
11 -139 -1 -29 -15 -47 -2 -54 38 -3 24 -17 49 -38 69 -33 31 -137 85 -149 77
-12 -7 -17 -60 -10 -101 10 -50 -8 -59 -34 -19 -12 19 -23 23 -42 20 -15 -3
-30 -7 -34 -9 -3 -3 -9 13 -12 36 -7 54 -48 104 -104 129 -55 24 -78 23 -79
-5 -2 -46 -3 -47 -30 -26 -15 12 -41 21 -58 22 l-31 1 34 12 c35 13 91 59 91
76 0 13 -13 13 -27 -1 -8 -8 -25 -4 -62 16 -53 29 -60 39 -37 52 7 4 23 30 35
58 21 47 21 50 4 63 -12 9 -32 11 -63 7 l-45 -7 22 22 c23 21 63 91 63 110 0
6 -27 10 -65 10 -58 0 -65 2 -65 19 0 11 13 27 28 36 34 20 79 89 88 133 6 31
6 32 -30 32 l-37 0 26 28 c58 60 83 142 45 142 -11 0 -20 2 -20 5 0 3 9 23 20
45 30 58 27 80 -10 80 -27 0 -41 13 -22 22 13 6 52 67 52 82 0 8 4 18 10 21
23 14 10 35 -22 35 -29 0 -30 1 -16 18 21 23 58 98 58 117 0 9 -9 15 -25 15
-14 0 -25 1 -25 3 0 2 11 27 25 55 37 77 35 85 -22 80 -27 -3 -65 -12 -85 -21
-21 -10 -38 -13 -38 -8 0 5 13 14 29 21 47 19 99 79 114 129 8 25 12 49 10 54
-2 4 -22 7 -44 7 -42 0 -90 -20 -125 -52 -21 -19 -22 -19 -60 1 -21 12 -55 21
-76 21 -21 0 -44 7 -53 17 -13 13 -19 13 -25 4 -8 -15 6 -91 21 -106 16 -16
10 -25 -16 -25 -14 0 -28 -6 -31 -14 -6 -17 25 -93 56 -136 l21 -29 -27 -17
c-33 -22 -74 -86 -74 -116 0 -13 -9 -29 -21 -36 l-21 -13 21 -23 c12 -12 21
-27 21 -32 0 -5 11 -26 25 -46 30 -45 31 -48 5 -48 -24 0 -25 -18 -3 -65 14
-29 15 -40 5 -53 -20 -29 -52 -91 -52 -102 0 -5 9 -10 20 -10 25 0 25 -7 0
-45 -11 -16 -20 -38 -20 -47 0 -24 46 -110 70 -130 20 -16 19 -17 -35 -28 -68
-14 -70 -26 -14 -93 l42 -49 -22 -28 c-11 -16 -21 -33 -21 -38 0 -5 -7 -23
-16 -41 -24 -47 -9 -58 60 -42 31 7 58 17 61 22 7 11 25 12 25 2 0 -5 -20 -16
-44 -26 -40 -17 -126 -90 -126 -108 0 -19 127 -33 177 -20 21 6 49 20 62 32
12 11 24 19 25 18 6 -7 26 -48 26 -53 0 -3 -21 -8 -47 -12 -73 -11 -183 -101
-163 -133 9 -15 134 -27 174 -17 14 3 41 22 60 42 30 31 37 34 55 24 24 -12
25 -15 11 -41 -24 -43 38 -82 70 -44 14 17 40 20 40 5 0 -6 -8 -13 -17 -17
-25 -8 -93 -74 -93 -90 0 -18 69 -36 127 -32 45 4 50 2 42 -13 -21 -39 -12
-48 47 -48 71 0 134 29 153 71 9 20 20 29 37 29 29 0 31 -11 5 -34 -21 -19
-56 -104 -47 -113 7 -7 43 -7 109 1 44 6 62 14 90 41 20 19 39 44 42 56 5 15
12 19 28 15 12 -3 28 -6 36 -6 7 0 -12 -24 -42 -52 -105 -100 -143 -192 -97
-238 30 -30 47 -24 19 8 -24 26 -29 72 -8 72 6 0 7 4 4 10 -9 15 19 61 71 114
70 70 81 75 138 67 26 -5 53 -14 58 -22 8 -11 9 -11 4 3 -3 12 2 18 17 21 12
2 -3 5 -33 6 -58 1 -80 13 -80 42 0 21 20 29 76 29 62 0 87 -15 80 -46 -5 -19
-2 -24 11 -24 33 0 163 -140 163 -175 0 -10 7 -26 15 -35 13 -14 12 -20 -11
-53 -13 -20 -20 -37 -15 -37 16 0 51 51 51 75 0 36 -46 109 -110 175 -32 33
-55 61 -52 61 42 8 53 4 77 -32 14 -21 35 -45 48 -53 21 -14 153 -36 174 -29
19 7 -14 87 -54 134 -12 14 -11 17 8 22 26 7 39 1 39 -17 0 -17 50 -63 83 -75
36 -14 124 -14 132 -1 4 6 0 22 -9 35 l-16 24 50 -6 c50 -6 140 12 140 28 0
13 -81 88 -102 95 -24 7 -23 17 5 30 18 8 26 7 35 -3 18 -18 71 -17 79 3 3 8
0 27 -8 40 -11 21 -11 27 0 33 9 6 26 -4 52 -30 46 -46 71 -53 150 -46 104 9
109 35 18 107 -37 29 -63 41 -100 46 -27 4 -49 8 -49 11 0 2 7 15 16 29 l17
25 23 -22 c30 -28 93 -39 167 -29 32 5 61 11 63 13 17 17 -85 111 -133 123
-12 4 -23 10 -23 15 0 4 16 1 35 -7 47 -19 115 -19 115 1 0 20 -46 111 -60
120 -6 4 1 21 18 43 16 20 37 51 45 69 l17 31 -50 12 c-27 6 -55 8 -62 4 -7
-4 1 8 17 27 17 19 41 55 54 81 l25 46 -27 39 c-32 46 -33 53 -9 53 10 0 22 3
25 7 8 7 -40 94 -57 105 -7 5 -5 19 7 43 21 44 22 75 3 75 -8 0 -17 4 -20 8
-5 8 4 23 65 113 17 26 17 27 -1 44 -11 10 -17 22 -14 27 10 16 -24 74 -65
111 l-40 36 25 28 c13 15 27 39 31 52 3 14 12 36 19 50 16 31 10 41 -27 41
l-29 0 20 37 c31 59 25 119 -9 89 -9 -7 -38 -16 -64 -20 -27 -3 -62 -14 -79
-23 -24 -14 -32 -15 -35 -5 -10 28 -160 82 -178 64z m179 -378 c3 -8 2 -12 -4
-9 -6 3 -10 10 -10 16 0 14 7 11 14 -7z m-1764 -139 c-7 -9 -15 -13 -17 -11
-7 7 7 26 19 26 6 0 6 -6 -2 -15z m1770 5 c0 -5 -4 -10 -10 -10 -5 0 -10 5
-10 10 0 6 5 10 10 10 6 0 10 -4 10 -10z m-1775 -450 c-3 -5 -10 -10 -16 -10
-5 0 -9 5 -9 10 0 6 7 10 16 10 8 0 12 -4 9 -10z m1785 0 c0 -5 -2 -10 -4 -10
-3 0 -8 5 -11 10 -3 6 -1 10 4 10 6 0 11 -4 11 -10z m-1890 -185 c0 -12 -5
-13 -17 -7 -10 5 -25 12 -33 15 -8 3 0 6 18 6 22 1 32 -4 32 -14z m2019 11
c-2 -2 -14 -9 -26 -15 -19 -10 -23 -9 -23 4 0 10 9 15 27 15 14 0 24 -2 22 -4z"/>
<path d="M2610 3813 c0 -6 7 -17 16 -24 13 -11 15 -26 11 -70 -3 -31 -2 -62 2
-68 4 -6 24 -12 44 -13 l37 -1 -1 -132 c-2 -140 1 -151 54 -217 24 -30 27 -39
18 -57 -10 -17 -9 -20 4 -15 12 5 15 -3 15 -45 0 -33 -4 -51 -12 -51 -9 0 -9
-3 0 -12 7 -7 12 -26 12 -43 0 -17 -5 -36 -12 -43 -9 -9 -9 -12 0 -12 15 0 15
-207 0 -216 -5 -3 -4 -12 2 -19 6 -8 10 -24 8 -37 -2 -17 -11 -24 -33 -27
l-30 -4 30 -6 c31 -6 42 -29 29 -59 -4 -9 -6 -21 -5 -26 4 -18 -11 -46 -24
-46 -9 0 -12 -6 -9 -15 8 -20 -13 -45 -39 -45 -11 0 -17 -3 -14 -7 9 -8 -24
-32 -44 -33 -9 0 -30 -7 -48 -16 -24 -12 -35 -13 -45 -5 -10 9 -15 8 -20 -5
-4 -11 -13 -14 -28 -11 -13 4 -26 0 -32 -9 -6 -8 -30 -15 -53 -17 -24 -1 -45
-8 -48 -14 -7 -19 -33 -16 -38 5 -4 13 -5 11 -6 -5 -1 -14 -7 -23 -17 -23 -8
0 -22 -7 -30 -15 -25 -24 -34 -17 -34 26 0 22 -4 38 -9 35 -5 -3 -7 -24 -4
-46 5 -32 2 -41 -12 -46 -11 -4 -22 -2 -29 7 -6 8 -18 14 -26 14 -8 0 -17 11
-21 25 -4 14 -7 19 -8 13 -1 -7 -10 -13 -21 -13 -14 0 -20 7 -21 23 -1 16 -2
18 -6 4 -5 -21 -2 -20 -47 -2 -20 8 -36 20 -36 25 0 6 -8 5 -19 -2 -15 -9 -23
-9 -35 2 -9 7 -19 10 -23 7 -9 -9 -44 13 -38 24 4 5 1 9 -4 9 -6 0 -11 -4 -11
-10 0 -14 -20 -12 -54 5 -15 8 -34 15 -41 15 -7 0 -33 16 -59 36 -36 27 -44
39 -36 49 8 9 5 14 -10 18 -14 3 -20 13 -20 31 0 15 -5 35 -12 45 -16 27 -3
51 29 52 l28 1 -30 7 c-35 7 -45 39 -21 64 12 12 13 16 3 20 -18 7 -20 196 -3
216 8 11 8 15 -1 18 -18 6 -16 72 2 79 13 5 13 8 0 21 -32 31 -15 99 46 189
15 22 29 56 31 75 2 21 8 33 16 32 15 -4 16 9 1 24 -12 12 -23 135 -15 167 4
15 14 22 37 23 36 3 35 2 43 28 5 18 2 20 -32 17 -34 -3 -41 0 -70 37 -26 32
-40 41 -64 41 -28 0 -30 -2 -24 -27 4 -16 22 -41 41 -56 l35 -29 0 -135 0
-135 -46 -68 -45 -68 3 -323 c3 -312 4 -326 25 -365 42 -79 108 -118 273 -160
146 -38 213 -62 265 -95 41 -26 49 -28 64 -16 44 38 166 84 311 117 30 7 88
28 127 47 58 27 79 43 105 81 l33 47 3 338 3 339 -40 59 -41 60 0 142 0 142
35 28 c44 35 49 77 9 77 -17 0 -37 -13 -61 -40 -26 -29 -44 -40 -65 -40 -27 0
-28 1 -28 53 0 41 -5 58 -20 72 -11 10 -20 13 -20 8z"/>
<path d="M1830 3790 c-6 -12 -9 -35 -7 -53 4 -31 4 -31 5 5 2 26 9 42 24 52
18 13 19 16 6 16 -10 0 -22 -9 -28 -20z"/>
<path d="M1860 3751 c0 -24 53 -39 75 -21 9 7 15 8 20 0 11 -18 25 -11 25 15
0 22 -4 25 -39 25 -22 0 -42 -5 -44 -12 -4 -10 -6 -10 -6 0 -2 20 -31 14 -31
-7z m70 -1 c0 -5 -4 -10 -10 -10 -5 0 -10 5 -10 10 0 6 5 10 10 10 6 0 10 -4
10 -10z"/>
<path d="M1991 3754 c0 -11 3 -14 6 -6 3 7 2 16 -1 19 -3 4 -6 -2 -5 -13z"/>
<path d="M2034 3759 c-10 -16 11 -32 46 -34 26 -2 29 0 18 12 -9 12 -9 16 3
24 10 6 3 9 -23 9 -20 0 -40 -5 -44 -11z m36 -8 c0 -6 -4 -13 -10 -16 -5 -3
-10 1 -10 9 0 9 5 16 10 16 6 0 10 -4 10 -9z"/>
<path d="M2122 3748 c3 -21 9 -23 63 -24 89 -2 114 4 108 27 -7 25 -19 24 -26
-2 -6 -24 -33 -21 -31 3 1 12 -12 16 -58 17 -56 1 -59 0 -56 -21z m88 -8 c0
-5 -2 -10 -4 -10 -3 0 -8 5 -11 10 -3 6 -1 10 4 10 6 0 11 -4 11 -10z"/>
<path d="M2320 3751 c0 -19 23 -35 34 -24 14 15 5 43 -14 43 -13 0 -20 -7 -20
-19z m30 -1 c0 -5 -4 -10 -10 -10 -5 0 -10 5 -10 10 0 6 5 10 10 10 6 0 10 -4
10 -10z"/>
<path d="M2390 3745 c0 -22 4 -24 37 -21 28 3 37 8 40 25 2 18 -2 21 -37 21
-36 0 -40 -3 -40 -25z"/>
<path d="M2487 3748 c-3 -10 -1 -16 3 -13 5 3 12 0 16 -7 5 -8 10 -6 15 8 5
13 8 14 8 4 1 -11 13 -16 40 -16 36 -1 39 0 32 20 -7 17 -17 21 -59 21 -41 1
-52 -3 -55 -17z"/>
<path d="M2087 3692 c-137 -3 -138 -3 -135 -25 3 -19 10 -22 55 -25 44 -3 52
-6 56 -25 l4 -22 2 23 1 22 215 0 c118 -1 219 1 224 4 5 3 11 15 14 25 5 19
-2 20 -147 23 -83 2 -213 2 -289 0z"/>
<path d="M2371 3583 c-14 -31 -14 -33 4 -27 8 4 15 12 15 20 0 8 5 14 10 14 6
0 10 4 10 8 0 19 -29 7 -39 -15z"/>
<path d="M2183 3550 c0 -30 2 -43 4 -27 2 15 2 39 0 55 -2 15 -4 2 -4 -28z"/>
<path d="M2283 3555 c0 -27 2 -38 4 -22 2 15 2 37 0 50 -2 12 -4 0 -4 -28z"/>
<path d="M1947 3570 c3 -11 9 -20 14 -20 11 0 11 3 3 24 -9 23 -23 20 -17 -4z"/>
<path d="M2505 3551 c-3 -5 -1 -12 5 -16 5 -3 10 1 10 9 0 18 -6 21 -15 7z"/>
<path d="M2390 3541 c0 -6 4 -13 10 -16 6 -3 7 1 4 9 -7 18 -14 21 -14 7z"/>
<path d="M2454 3498 c1 -32 8 -35 30 -12 23 22 20 39 -8 39 -19 0 -23 -5 -22
-27z"/>
<path d="M2287 3484 c-4 -4 -7 -14 -7 -23 0 -11 3 -12 11 -4 6 6 10 16 7 23
-2 6 -7 8 -11 4z"/>
<path d="M2191 3380 c0 -36 3 -71 8 -79 5 -8 7 13 4 55 -6 93 -11 103 -12 24z"/>
<path d="M2491 3354 c0 -11 3 -14 6 -6 3 7 2 16 -1 19 -3 4 -6 -2 -5 -13z"/>
<path d="M2112 3340 c0 -14 2 -19 5 -12 2 6 2 18 0 25 -3 6 -5 1 -5 -13z"/>
<path d="M2268 3340 c-9 -6 -19 -23 -23 -39 -3 -16 -17 -43 -31 -62 -23 -32
-24 -32 -25 -8 0 14 -3 18 -6 9 -2 -8 -7 -22 -11 -30 -3 -8 -6 -19 -7 -25 -4
-29 -32 -67 -66 -90 -22 -14 -39 -30 -39 -35 0 -20 34 -23 62 -7 37 21 57 22
64 2 4 -8 12 -15 20 -15 8 0 14 -7 14 -15 0 -12 9 -15 35 -13 30 2 34 5 29 23
-3 11 -10 24 -15 30 -16 17 -10 26 14 20 15 -4 40 2 66 16 50 26 62 19 38 -22
-28 -50 -24 -54 48 -51 48 3 65 7 65 18 0 8 -4 14 -10 14 -5 0 -10 5 -10 10 0
6 15 10 34 10 49 0 52 13 11 46 -29 23 -35 33 -30 54 4 19 0 31 -15 45 -11 10
-20 28 -20 40 0 16 -12 27 -52 44 -29 13 -61 27 -70 32 -23 12 -49 11 -70 -1z"/>
<path d="M2547 3233 c-10 -9 -9 -23 2 -23 5 0 11 7 15 15 5 15 -5 20 -17 8z"/>
<path d="M1721 3188 c13 -24 29 -23 29 1 0 13 -6 19 -19 18 -16 -1 -18 -5 -10
-19z"/>
<path d="M2011 3184 c0 -11 3 -14 6 -6 3 7 2 16 -1 19 -3 4 -6 -2 -5 -13z"/>
<path d="M2570 3161 c0 -6 4 -13 10 -16 6 -3 7 1 4 9 -7 18 -14 21 -14 7z"/>
<path d="M1865 3150 c-3 -5 -1 -10 4 -10 6 0 11 5 11 10 0 6 -2 10 -4 10 -3 0
-8 -4 -11 -10z"/>
<path d="M2088 3153 c6 -2 18 -2 25 0 6 3 1 5 -13 5 -14 0 -19 -2 -12 -5z"/>
<path d="M1710 3096 c0 -2 7 -9 15 -16 9 -7 15 -8 15 -2 0 5 -7 12 -15 16 -8
3 -15 4 -15 2z"/>
<path d="M2615 3080 c3 -5 8 -10 11 -10 2 0 4 5 4 10 0 6 -5 10 -11 10 -5 0
-7 -4 -4 -10z"/>
<path d="M1764 3052 c12 -13 17 -12 36 1 21 15 21 15 -14 14 -31 -1 -34 -3
-22 -15z"/>
<path d="M2705 3061 c-3 -5 -1 -12 5 -16 5 -3 10 1 10 9 0 18 -6 21 -15 7z"/>
<path d="M2740 2955 c0 -25 3 -45 8 -45 4 0 7 20 7 45 0 25 -3 45 -7 45 -5 0
-8 -20 -8 -45z"/>
<path d="M1928 2983 c6 -2 18 -2 25 0 6 3 1 5 -13 5 -14 0 -19 -2 -12 -5z"/>
<path d="M1970 2975 c0 -2 11 -15 25 -29 19 -19 25 -21 25 -9 0 9 -8 22 -17
29 -18 14 -33 18 -33 9z"/>
<path d="M1800 2890 c0 -5 5 -10 10 -10 6 0 10 5 10 10 0 6 -4 10 -10 10 -5 0
-10 -4 -10 -10z"/>
<path d="M2015 2890 c3 -5 8 -10 11 -10 2 0 4 5 4 10 0 6 -5 10 -11 10 -5 0
-7 -4 -4 -10z"/>
<path d="M1748 2833 c7 -3 16 -2 19 1 4 3 -2 6 -13 5 -11 0 -14 -3 -6 -6z"/>
<path d="M2075 2830 c-3 -5 -1 -10 4 -10 6 0 11 5 11 10 0 6 -2 10 -4 10 -3 0
-8 -4 -11 -10z"/>
<path d="M2718 2833 c7 -3 16 -2 19 1 4 3 -2 6 -13 5 -11 0 -14 -3 -6 -6z"/>
<path d="M1870 2816 c0 -9 30 -14 35 -6 4 6 -3 10 -14 10 -12 0 -21 -2 -21 -4z"/>
<path d="M2038 2808 c11 -14 10 -17 -5 -22 -10 -3 -4 -4 14 -2 18 1 30 -1 28
-5 -3 -4 3 -13 12 -20 14 -13 13 -15 -13 -19 l-29 -6 32 -14 c19 -9 27 -17 21
-21 -8 -5 -6 -12 5 -24 10 -9 17 -19 17 -23 0 -3 -5 -1 -12 6 -7 7 -16 12 -20
12 -4 0 0 -8 10 -18 9 -10 27 -17 40 -16 12 1 20 -2 16 -7 -3 -5 3 -9 13 -9
11 0 14 -3 7 -8 -6 -4 -16 -18 -23 -32 -10 -21 -10 -22 1 -9 7 9 19 14 26 12
6 -3 12 1 12 8 0 9 3 10 11 2 8 -8 8 -17 -1 -32 -6 -12 -9 -30 -7 -39 3 -12 5
-11 6 6 1 30 21 28 21 -3 0 -16 6 -25 15 -25 8 0 15 -8 15 -19 0 -10 9 -21 20
-24 11 -3 24 -16 29 -29 6 -14 10 -17 10 -7 1 10 10 16 30 16 41 0 77 31 73
65 -2 20 5 36 27 57 17 17 31 37 31 46 0 8 9 24 19 34 13 13 16 21 8 24 -7 3
0 8 16 12 53 14 26 25 -62 25 -87 0 -89 0 -84 -22 3 -13 17 -34 32 -47 l26
-23 -33 6 c-31 5 -32 4 -21 -16 10 -19 9 -20 -17 -13 -16 5 -39 8 -51 8 -13
-1 -23 5 -23 13 0 8 -9 14 -20 14 -25 0 -16 26 11 33 11 3 19 14 19 26 0 20
-5 21 -84 21 l-85 0 -17 54 c-12 37 -21 53 -31 49 -7 -3 -21 1 -31 8 -15 13
-16 12 -4 -3z"/>
<path d="M1948 2793 c7 -3 16 -2 19 1 4 3 -2 6 -13 5 -11 0 -14 -3 -6 -6z"/>
<path d="M1758 2773 c12 -2 30 -2 40 0 9 3 -1 5 -23 4 -22 0 -30 -2 -17 -4z"/>
<path d="M2678 2773 c12 -2 30 -2 40 0 9 3 -1 5 -23 4 -22 0 -30 -2 -17 -4z"/>
<path d="M1808 2713 c12 -2 30 -2 40 0 9 3 -1 5 -23 4 -22 0 -30 -2 -17 -4z"/>
<path d="M2633 2713 c9 -2 25 -2 35 0 9 3 1 5 -18 5 -19 0 -27 -2 -17 -5z"/>
<path d="M2038 2703 c6 -2 18 -2 25 0 6 3 1 5 -13 5 -14 0 -19 -2 -12 -5z"/>
<path d="M1848 2663 c6 -2 18 -2 25 0 6 3 1 5 -13 5 -14 0 -19 -2 -12 -5z"/>
<path d="M2608 2663 c7 -3 16 -2 19 1 4 3 -2 6 -13 5 -11 0 -14 -3 -6 -6z"/>
<path d="M1788 2653 c7 -3 16 -2 19 1 4 3 -2 6 -13 5 -11 0 -14 -3 -6 -6z"/>
<path d="M1705 2640 c-3 -5 -2 -10 4 -10 5 0 13 5 16 10 3 6 2 10 -4 10 -5 0
-13 -4 -16 -10z"/>
<path d="M2745 2640 c3 -5 10 -10 16 -10 5 0 9 5 9 10 0 6 -7 10 -16 10 -8 0
-12 -4 -9 -10z"/>
<path d="M2181 2474 c0 -11 3 -14 6 -6 3 7 2 16 -1 19 -3 4 -6 -2 -5 -13z"/>
<path d="M524 2205 c-3 -8 2 -63 11 -122 9 -59 21 -157 28 -216 l11 -108 -102
-102 c-56 -56 -102 -107 -102 -114 0 -6 26 -26 58 -45 31 -19 114 -70 185
-112 l127 -78 0 -128 c0 -135 8 -160 49 -160 9 0 21 -4 27 -8 5 -5 56 -23 114
-41 58 -18 123 -39 145 -46 161 -56 545 -131 828 -161 135 -14 566 -22 585
-11 6 5 45 9 197 23 147 13 368 56 608 118 74 19 339 106 352 116 6 4 22 10
38 14 l27 6 0 139 0 139 53 34 c28 19 109 70 180 112 75 46 127 84 127 93 0 9
-46 59 -101 112 l-101 95 6 61 c4 33 9 74 12 90 19 114 35 298 26 307 -6 6
-46 -14 -113 -58 -57 -36 -126 -81 -154 -99 -27 -18 -99 -64 -160 -103 -174
-111 -165 -101 -165 -187 0 -61 -3 -76 -17 -83 -56 -29 -363 -121 -473 -142
-30 -5 -75 -14 -100 -19 -209 -43 -552 -57 -800 -32 -101 10 -348 53 -390 69
-8 3 -19 6 -25 7 -151 37 -366 109 -381 129 -5 8 -11 45 -12 82 -1 64 -18 104
-44 104 -4 0 -41 22 -81 49 -132 90 -449 291 -458 291 -5 0 -12 -7 -15 -15z
m277 -191 c57 -37 138 -89 179 -116 l75 -48 -152 0 -153 0 0 -37 c-1 -21 0
-131 0 -245 0 -113 -3 -209 -7 -211 -7 -4 -302 168 -321 187 -3 4 40 52 95
109 l101 102 -13 70 c-7 39 -18 117 -24 175 -7 58 -16 117 -20 132 -16 50 -23
54 240 -118z m3070 24 c-11 -62 -23 -153 -27 -201 l-7 -89 99 -99 c54 -54 96
-100 93 -102 -13 -11 -120 -77 -126 -77 -3 0 -21 -11 -39 -25 -18 -14 -35 -25
-38 -25 -3 0 -28 -13 -54 -30 -27 -16 -52 -30 -56 -30 -3 0 -6 110 -6 245 l0
244 -156 3 -157 3 84 54 c46 30 134 86 194 126 192 124 210 135 213 125 2 -5
-6 -60 -17 -122z m-2781 -273 c0 -30 -2 -55 -4 -55 -2 0 -47 20 -99 45 -53 25
-100 45 -106 45 -6 0 -11 5 -11 10 0 6 43 10 110 10 l110 0 0 -55z m2485 46
c-6 -5 -44 -23 -85 -41 -41 -18 -84 -39 -95 -46 -31 -22 -35 -17 -35 41 l0 55
112 0 c66 0 108 -4 103 -9z m-2690 -53 c72 -36 90 -43 275 -121 19 -8 53 -20
75 -27 22 -6 49 -15 60 -20 22 -10 98 -31 215 -62 93 -24 256 -55 375 -71 120
-16 554 -15 675 1 184 24 431 75 495 101 11 4 67 23 125 41 58 18 109 37 114
41 6 5 16 9 24 9 14 0 193 76 272 115 25 12 55 26 68 29 l22 7 -2 -372 -3
-373 -45 -16 c-25 -9 -52 -20 -60 -23 -34 -15 -252 -81 -340 -103 -355 -91
-549 -116 -930 -121 -244 -4 -330 -1 -430 12 -69 9 -163 20 -210 26 -47 5
-114 16 -150 24 -145 31 -337 77 -360 85 -14 5 -74 23 -135 41 -60 17 -114 34
-120 38 -5 3 -32 13 -60 21 l-50 16 -3 373 -2 372 22 -7 c13 -4 50 -20 83 -36z"/>
<path d="M1394 1436 c-44 -19 -71 -59 -85 -124 -29 -143 28 -291 134 -343 107
-51 200 -32 242 52 l25 48 -28 19 c-15 11 -42 27 -59 36 l-33 16 -14 -35 c-13
-29 -20 -35 -46 -35 -66 0 -90 38 -90 144 0 73 18 106 59 106 31 0 50 -13 74
-52 14 -23 25 -28 55 -28 21 0 46 6 56 13 17 13 17 16 -7 64 -33 63 -74 98
-139 118 -63 18 -103 19 -144 1z"/>
<path d="M2880 1421 l-35 -6 -3 -237 -2 -238 27 0 c16 1 48 5 73 11 25 5 78
16 119 24 117 23 111 18 111 87 l0 60 -52 -7 c-29 -4 -61 -11 -70 -16 -9 -5
-30 -9 -47 -9 l-31 0 0 170 0 170 -27 -1 c-16 -1 -44 -4 -63 -8z"/>
<path d="M1810 1149 l0 -236 38 -7 c20 -3 49 -6 65 -6 24 0 27 4 27 33 2 151
0 440 -2 442 -2 2 -31 5 -65 7 l-63 4 0 -237z"/>
<path d="M2598 1383 c-17 -4 -18 -24 -18 -239 l0 -234 60 0 c46 0 61 4 68 18
11 20 16 397 6 436 -6 24 -10 26 -53 25 -25 -1 -54 -3 -63 -6z"/>
<path d="M2044 1357 c-4 -12 80 -285 132 -424 l16 -43 68 0 c42 0 71 5 77 13
6 6 22 53 38 102 15 50 31 99 36 110 19 43 77 240 72 248 -7 12 -121 8 -130
-5 -8 -12 -23 -68 -62 -220 -9 -37 -19 -69 -22 -73 -3 -3 -16 30 -28 72 -12
43 -33 112 -45 153 l-22 75 -62 3 c-46 2 -64 -1 -68 -11z"/>
<path d="M2217 1777 c-4 -30 -4 -68 -1 -83 3 -18 0 -37 -9 -48 -14 -19 -15
-19 -32 7 -21 33 -39 34 -61 5 -16 -22 -16 -21 -10 26 6 46 5 48 -11 33 -10
-8 -31 -17 -48 -20 l-30 -4 32 -2 c28 -1 32 -5 35 -33 4 -39 20 -46 46 -17 22
23 42 18 42 -11 0 -23 12 -31 29 -20 20 12 42 83 31 94 -13 13 -13 53 -1 61 5
3 12 -5 14 -17 2 -13 3 -5 0 16 -7 67 -19 73 -26 13z"/>
<path d="M2290 1729 c0 -11 5 -17 10 -14 6 3 10 13 10 21 0 8 -4 14 -10 14 -5
0 -10 -9 -10 -21z"/>
<path d="M2356 1694 c5 -52 4 -57 -9 -41 -16 19 -52 23 -63 6 -4 -7 0 -9 14
-5 15 5 24 1 32 -14 14 -27 38 -26 44 3 11 48 10 63 -6 86 -16 23 -17 22 -12
-35z"/>
<path d="M2400 1696 c0 -9 39 -13 51 -5 10 6 4 9 -18 9 -18 0 -33 -2 -33 -4z"/>
<path d="M2241 1657 c-1 -26 17 -57 34 -57 8 0 15 7 15 15 0 8 -7 15 -15 15
-9 0 -20 10 -25 23 -7 18 -9 19 -9 4z"/>
<path d="M2017 463 c-15 -43 -34 -92 -41 -108 -7 -17 -17 -45 -20 -63 l-8 -32
51 0 c39 0 51 4 51 15 0 16 7 18 60 15 19 -1 39 -8 43 -16 9 -15 107 -21 107
-6 0 8 -38 114 -78 217 l-20 50 -58 3 -59 3 -28 -78z m101 -71 c2 -15 -2 -22
-12 -22 -11 0 -16 9 -16 26 0 31 23 28 28 -4z"/>
<path d="M2280 538 c0 -2 -1 -64 -2 -138 l-1 -135 51 -3 52 -3 0 44 0 45 46 7
c65 9 73 14 89 46 20 37 19 84 -1 114 -16 24 -20 25 -125 25 -60 0 -109 -1
-109 -2z m147 -74 c6 -16 -12 -34 -34 -34 -7 0 -13 11 -13 25 0 18 5 25 20 25
11 0 23 -7 27 -16z"/>
</g>
</svg>
